<?xml version="1.0" standalone="no"?><svg xmlns="http://www.w3.org/2000/svg" viewBox="0 0 1440 320"><path fill="#EA3361" fill-opacity="1" d="M0,256L8.3,240C16.6,224,33,192,50,165.3C66.2,139,83,117,99,128C115.9,139,132,181,149,192C165.5,203,182,181,199,181.3C215.2,181,232,203,248,192C264.8,181,281,139,298,133.3C314.5,128,331,160,348,176C364.1,192,381,192,397,197.3C413.8,203,430,213,447,202.7C463.4,192,480,160,497,144C513.1,128,530,128,546,112C562.8,96,579,64,596,74.7C612.4,85,629,139,646,176C662.1,213,679,235,695,240C711.7,245,728,235,745,197.3C761.4,160,778,96,794,96C811,96,828,160,844,170.7C860.7,181,877,139,894,122.7C910.3,107,927,117,943,128C960,139,977,149,993,160C1009.7,171,1026,181,1043,197.3C1059.3,213,1076,235,1092,250.7C1109,267,1126,277,1142,256C1158.6,235,1175,181,1192,181.3C1208.3,181,1225,235,1241,240C1257.9,245,1274,203,1291,170.7C1307.6,139,1324,117,1341,96C1357.2,75,1374,53,1390,37.3C1406.9,21,1423,11,1432,5.3L1440,0L1440,320L1431.7,320C1423.4,320,1407,320,1390,320C1373.8,320,1357,320,1341,320C1324.1,320,1308,320,1291,320C1274.5,320,1258,320,1241,320C1224.8,320,1208,320,1192,320C1175.2,320,1159,320,1142,320C1125.5,320,1109,320,1092,320C1075.9,320,1059,320,1043,320C1026.2,320,1010,320,993,320C976.6,320,960,320,943,320C926.9,320,910,320,894,320C877.2,320,861,320,844,320C827.6,320,811,320,794,320C777.9,320,761,320,745,320C728.3,320,712,320,695,320C678.6,320,662,320,646,320C629,320,612,320,596,320C579.3,320,563,320,546,320C529.7,320,513,320,497,320C480,320,463,320,447,320C430.3,320,414,320,397,320C380.7,320,364,320,348,320C331,320,314,320,298,320C281.4,320,265,320,248,320C231.7,320,215,320,199,320C182.1,320,166,320,149,320C132.4,320,116,320,99,320C82.8,320,66,320,50,320C33.1,320,17,320,8,320L0,320Z"></path></svg>