<svg xmlns="http://www.w3.org/2000/svg" viewBox="0 0 1440 320">
  <path fill="#0A182A" fill-opacity="1" d="M0,64L8.9,64C17.8,64,36,64,53,74.7C71.1,85,89,107,107,117.3C124.4,128,142,128,160,128C177.8,128,196,128,213,154.7C231.1,181,249,235,267,256C284.4,277,302,267,320,245.3C337.8,224,356,192,373,154.7C391.1,117,409,75,427,101.3C444.4,128,462,224,480,229.3C497.8,235,516,149,533,138.7C551.1,128,569,192,587,181.3C604.4,171,622,85,640,90.7C657.8,96,676,192,693,224C711.1,256,729,224,747,202.7C764.4,181,782,171,800,165.3C817.8,160,836,160,853,160C871.1,160,889,160,907,176C924.4,192,942,224,960,218.7C977.8,213,996,171,1013,165.3C1031.1,160,1049,192,1067,192C1084.4,192,1102,160,1120,138.7C1137.8,117,1156,107,1173,96C1191.1,85,1209,75,1227,64C1244.4,53,1262,43,1280,37.3C1297.8,32,1316,32,1333,37.3C1351.1,43,1369,53,1387,69.3C1404.4,85,1422,107,1431,117.3L1440,128L1440,320L1431.1,320C1422.2,320,1404,320,1387,320C1368.9,320,1351,320,1333,320C1315.6,320,1298,320,1280,320C1262.2,320,1244,320,1227,320C1208.9,320,1191,320,1173,320C1155.6,320,1138,320,1120,320C1102.2,320,1084,320,1067,320C1048.9,320,1031,320,1013,320C995.6,320,978,320,960,320C942.2,320,924,320,907,320C888.9,320,871,320,853,320C835.6,320,818,320,800,320C782.2,320,764,320,747,320C728.9,320,711,320,693,320C675.6,320,658,320,640,320C622.2,320,604,320,587,320C568.9,320,551,320,533,320C515.6,320,498,320,480,320C462.2,320,444,320,427,320C408.9,320,391,320,373,320C355.6,320,338,320,320,320C302.2,320,284,320,267,320C248.9,320,231,320,213,320C195.6,320,178,320,160,320C142.2,320,124,320,107,320C88.9,320,71,320,53,320C35.6,320,18,320,9,320L0,320Z"></path>
</svg>