<?xml version="1.0" encoding="UTF-8" standalone="no"?>
<!DOCTYPE svg PUBLIC "-//W3C//DTD SVG 1.1//EN" "http://www.w3.org/Graphics/SVG/1.1/DTD/svg11.dtd">
<svg width="100%" height="100%" viewBox="0 0 565 490" version="1.1" xmlns="http://www.w3.org/2000/svg" xmlns:xlink="http://www.w3.org/1999/xlink" xml:space="preserve" xmlns:serif="http://www.serif.com/" style="fill-rule:evenodd;clip-rule:evenodd;stroke-linecap:round;stroke-linejoin:round;stroke-miterlimit:1.5;">
    <g transform="matrix(1,0,0,1.37183,-297.332,-1686.48)">
        <ellipse cx="577.036" cy="1546.77" rx="67.69" ry="30.715" style="fill:rgb(17,24,39);"/>
    </g>
    <g transform="matrix(1,0,0,1,-297.332,-1122.77)">
        <g>
            <g transform="matrix(0.499179,-0.866499,0.866499,0.499179,-856.102,966.14)">
                <path d="M407.736,1191.97L448.678,1255.36L366.793,1255.36L407.736,1191.97Z" style="fill:rgb(17,24,39);stroke:rgb(7,11,17);stroke-width:24px;"/>
            </g>
            <g transform="matrix(-0.499179,-0.866499,-0.866499,0.499179,2025.46,966.14)">
                <path d="M407.736,1191.97L448.678,1255.36L366.793,1255.36L407.736,1191.97Z" style="fill:rgb(17,24,39);stroke:rgb(7,11,17);stroke-width:24px;"/>
            </g>
            <g transform="matrix(0.167329,-0.985901,-0.985901,-0.167329,1893.01,1891.89)">
                <path d="M407.736,1191.97L448.678,1255.36L366.793,1255.36L407.736,1191.97Z" style="fill:rgb(17,24,39);stroke:rgb(7,11,17);stroke-width:24px;"/>
            </g>
            <g transform="matrix(-0.551874,0.204906,0.204906,0.551874,615.755,393.401)">
                <path d="M407.736,1191.97L448.678,1255.36L366.793,1255.36L407.736,1191.97Z" style="fill:rgb(17,24,39);stroke:rgb(7,11,17);stroke-width:40.77px;"/>
            </g>
            <g transform="matrix(-0.541088,-0.231895,-0.231895,0.541088,1171.72,595.73)">
                <path d="M407.736,1191.97L448.678,1255.36L366.793,1255.36L407.736,1191.97Z" style="fill:rgb(17,24,39);stroke:rgb(7,11,17);stroke-width:40.77px;"/>
            </g>
            <g transform="matrix(0.499179,-0.866499,0.866499,0.499179,-863.058,966.14)">
                <path d="M407.736,1191.97L448.678,1255.36L366.793,1255.36L407.736,1191.97Z" style="fill:rgb(17,24,39);stroke:rgb(7,11,17);stroke-width:24px;"/>
            </g>
            <g transform="matrix(-0.167329,-0.985901,0.985901,-0.167329,-727.605,1891.89)">
                <path d="M407.736,1191.97L448.678,1255.36L366.793,1255.36L407.736,1191.97Z" style="fill:rgb(17,24,39);stroke:rgb(7,11,17);stroke-width:24px;"/>
            </g>
            <g>
                <g transform="matrix(1.49541,-1.18243,-0.620242,-0.78441,948.642,2966.35)">
                    <path d="M439.453,1218.31C397.591,1218.31 363.603,1251.81 363.603,1293.07C363.603,1334.33 397.591,1367.82 439.453,1367.82C426.895,1350.38 416.698,1322.89 416.698,1293.07C416.698,1263.24 426.895,1235.75 439.453,1218.31Z" style="fill:rgb(17,24,39);stroke:rgb(7,11,17);stroke-width:15.77px;"/>
                </g>
                <g transform="matrix(-1.49541,-1.18243,0.620242,-0.78441,210.847,2966.35)">
                    <path d="M439.453,1218.31C397.591,1218.31 363.603,1251.81 363.603,1293.07C363.603,1334.33 397.591,1367.82 439.453,1367.82C426.895,1350.38 416.698,1322.89 416.698,1293.07C416.698,1263.24 426.895,1235.75 439.453,1218.31Z" style="fill:rgb(17,24,39);stroke:rgb(7,11,17);stroke-width:15.77px;"/>
                </g>
                <g transform="matrix(1,0,0,1,0,-26.5917)">
                    <path d="M577.741,1626.77C577.741,1626.77 502.763,1620.46 476.399,1505.57" style="fill:rgb(17,24,39);stroke:rgb(7,11,17);stroke-width:24px;"/>
                    <g transform="matrix(-1,0,0,1,1155.48,0)">
                        <path d="M577.741,1626.77C577.741,1626.77 502.763,1620.46 476.399,1505.57" style="fill:rgb(17,24,39);stroke:rgb(7,11,17);stroke-width:24px;"/>
                    </g>
                </g>
                <g transform="matrix(1,0,0,1.03391,-0.565742,-47.3723)">
                    <clipPath id="_clip1">
                        <rect x="348.233" y="1133.02" width="454.284" height="401.89"/>
                    </clipPath>
                    <g clip-path="url(#_clip1)">
                        <circle cx="578.307" cy="1346.95" r="187.953" style="fill:rgb(17,24,39);stroke:rgb(7,11,17);stroke-width:23.6px;"/>
                    </g>
                </g>
            </g>
        </g>
    </g>
    <g>
        <g transform="matrix(-0.484062,-0.207455,-0.220021,0.513382,826.986,-483.186)">
            <path d="M407.736,1191.97L448.678,1255.36L366.793,1255.36L407.736,1191.97Z" style="fill:rgb(17,24,39);stroke:rgb(17,24,39);stroke-width:24.56px;"/>
        </g>
        <g transform="matrix(-0.391093,0.14521,0.147388,0.39696,325.956,-494.385)">
            <path d="M407.736,1191.97L448.678,1255.36L366.793,1255.36L407.736,1191.97Z" style="fill:rgb(17,24,39);stroke:rgb(17,24,39);stroke-width:31.72px;"/>
        </g>
        <g transform="matrix(-0.499179,-0.866499,-0.866499,0.499179,1704.74,-144.454)">
            <path d="M407.736,1191.97L448.678,1255.36L366.793,1255.36L407.736,1191.97Z" style="fill:rgb(17,24,39);stroke:rgb(17,24,39);stroke-width:13px;"/>
        </g>
        <g transform="matrix(0.223509,-0.974702,-0.974702,-0.223509,1539.05,830.199)">
            <path d="M407.736,1191.97L448.678,1255.36L366.793,1255.36L407.736,1191.97Z" style="fill:rgb(17,24,39);stroke:rgb(17,24,39);stroke-width:13px;"/>
        </g>
        <g transform="matrix(-0.223509,-0.974702,0.974702,-0.223509,-973.802,830.194)">
            <path d="M407.736,1191.97L448.678,1255.36L366.793,1255.36L407.736,1191.97Z" style="fill:rgb(17,24,39);stroke:rgb(17,24,39);stroke-width:13px;"/>
        </g>
        <g transform="matrix(0.499179,-0.866499,0.866499,0.499179,-1143.92,-148.454)">
            <path d="M407.736,1191.97L448.678,1255.36L366.793,1255.36L407.736,1191.97Z" style="fill:rgb(17,24,39);stroke:rgb(17,24,39);stroke-width:13px;"/>
        </g>
    </g>
    <g transform="matrix(0.90893,0,0,1.05475,-241.76,-1244.98)">
        <ellipse cx="571.363" cy="1488.16" rx="165.424" ry="87.367" style="fill:rgb(255,0,94);stroke:rgb(6,11,16);stroke-width:24.38px;"/>
    </g>
    <g transform="matrix(1,0,0,1,1.06748,-3.28575)">
        <rect x="212.197" y="244.707" width="51.928" height="32.348" style="fill:rgb(255,190,0);"/>
    </g>
    <g transform="matrix(1,0,0,1,77.7491,-3.28575)">
        <rect x="212.197" y="244.707" width="51.928" height="32.348" style="fill:rgb(255,190,0);"/>
    </g>
    <g transform="matrix(0.90893,0,0,1.05475,-241.76,-1244.98)">
        <ellipse cx="571.363" cy="1488.16" rx="165.424" ry="87.367" style="fill:none;stroke:rgb(6,11,16);stroke-width:24.38px;"/>
    </g>
    <g transform="matrix(1,0,0,1,-275.212,-812.872)">
        <g transform="matrix(1,0,0,1.11099,-22.1202,-470.017)">
            <ellipse cx="574.901" cy="1411.66" rx="45.584" ry="30.989" style="fill:rgb(255,190,0);stroke:rgb(255,190,0);stroke-width:22.71px;"/>
        </g>
        <g transform="matrix(0.449803,0,0,0.449803,292.911,420.339)">
            <g transform="matrix(1.21084,-0.172033,0.231373,1.62851,-498.408,-924.514)">
                <path d="M577.741,1626.77C577.741,1626.77 502.763,1620.46 476.399,1505.57" style="fill:none;stroke:rgb(6,11,16);stroke-width:36.81px;"/>
            </g>
            <g transform="matrix(-1.21084,-0.172033,-0.231373,1.62851,1653.69,-924.514)">
                <path d="M577.741,1626.77C577.741,1626.77 502.763,1620.46 476.399,1505.57" style="fill:none;stroke:rgb(6,11,16);stroke-width:36.81px;"/>
            </g>
        </g>
    </g>
    <g transform="matrix(1,0,0,1,-298.024,-1135.96)">
        <g transform="matrix(1,0,0,1,-0.130707,-2.256)">
            <circle cx="480.594" cy="1370.39" r="53.275" style="fill:rgb(19,255,249);stroke:rgb(6,11,16);stroke-width:24px;"/>
        </g>
        <g transform="matrix(1,0,0,1,189.945,-2.256)">
            <circle cx="480.594" cy="1370.39" r="53.275" style="fill:rgb(19,255,249);stroke:rgb(6,11,16);stroke-width:24px;"/>
        </g>
        <g transform="matrix(0.972844,0,0,0.972844,32.1334,37.1538)">
            <circle cx="666.737" cy="1347.19" r="20.952" style="fill:rgb(7,11,16);stroke:rgb(7,11,16);stroke-width:24.67px;"/>
        </g>
        <g transform="matrix(0.972844,0,0,0.972844,-152.781,37.1538)">
            <circle cx="666.737" cy="1347.19" r="20.952" style="fill:rgb(7,11,16);stroke:rgb(7,11,16);stroke-width:24.67px;"/>
        </g>
    </g>
</svg>
