<svg clip-rule="evenodd" fill-rule="evenodd" stroke-linecap="round" stroke-linejoin="round" stroke-miterlimit="1.5" viewBox="0 0 500 500" xmlns="http://www.w3.org/2000/svg" xmlns:xlink="http://www.w3.org/1999/xlink"><clipPath id="a"><path clip-rule="evenodd" d="m348.233 1133.02h454.284v401.89h-454.284z"/></clipPath><clipPath id="b"><path clip-rule="evenodd" d="m409.143 1291.95h145.781v74.549h-145.781z"/></clipPath><clipPath id="c"><path clip-rule="evenodd" d="m390.491 1295.8h182.193v69.546h-182.193z"/></clipPath><g fill="#1c2b43"><ellipse cx="577.036" cy="1546.77" rx="67.69" ry="30.715" transform="matrix(.846187 0 0 1.16083 -240.572 -1379.68)"/><path d="m407.736 1191.97 40.942 63.39h-81.885z" stroke="#070b11" stroke-width="28.36" transform="matrix(.42239878047 -.73322018931 .73322018931 .42239878047 -964.994383074 -85.13689182)"/><path d="m407.736 1191.97 40.942 63.39h-81.885z" stroke="#070b11" stroke-width="28.36" transform="matrix(-.42239878047 -.73322018931 -.73322018931 .42239878047 1473.34592102 -85.13689182)"/><path d="m407.736 1191.97 40.942 63.39h-81.885z" stroke="#070b11" stroke-width="28.36" transform="matrix(.14159162452 -.83425660949 -.83425660949 -.14159162452 1361.26845287 698.22072343)"/><path d="m407.736 1191.97 40.942 63.39h-81.885z" stroke="#070b11" stroke-width="48.18" transform="matrix(-.46698860444 .17338879342 .17338879342 .46698860444 280.471876185 -569.781188013)"/><path d="m407.736 1191.97 40.942 63.39h-81.885z" stroke="#070b11" stroke-width="48.18" transform="matrix(-.45786163146 -.19622653437 -.19622653437 .45786163146 750.92223164 -398.57301849)"/><path d="m407.736 1191.97 40.942 63.39h-81.885z" stroke="#070b11" stroke-width="28.36" transform="matrix(.42239878047 -.73322018931 .73322018931 .42239878047 -970.880459846 -85.13689182)"/><path d="m407.736 1191.97 40.942 63.39h-81.885z" stroke="#070b11" stroke-width="28.36" transform="matrix(-.14159162452 -.83425660949 .83425660949 -.14159162452 -856.261892135 698.22072343)"/><path d="m439.453 1218.31c-41.862 0-75.85 33.5-75.85 74.76s33.988 74.75 75.85 74.75c-12.558-17.44-22.755-44.93-22.755-74.75 0-29.83 10.197-57.32 22.755-74.76z" stroke="#070b11" stroke-width="18.63" transform="matrix(1.26539650167 -1.00055689441 -.52484071725 -.66375754467 562.156528054 1607.41480745)"/><path d="m439.453 1218.31c-41.862 0-75.85 33.5-75.85 74.76s33.988 74.75 75.85 74.75c-12.558-17.44-22.755-44.93-22.755-74.75 0-29.83 10.197-57.32 22.755-74.76z" stroke="#070b11" stroke-width="18.63" transform="matrix(-1.26539650167 -1.00055689441 .52484071725 -.66375754467 -62.156009611 1607.41480745)"/><g stroke="#070b11" stroke-width="28.36" transform="matrix(.846187 0 0 .846187 -240.572 -925.1735508479)"><path d="m577.741 1626.77s-74.978-6.31-101.342-121.2"/><path d="m577.741 1626.77s-74.978-6.31-101.342-121.2" transform="matrix(-1 0 0 1 1155.48 0)"/></g></g><g clip-path="url(#a)" transform="matrix(.846187 0 0 .87488120117 -241.05072352575 -942.7578244201)"><circle cx="578.307" cy="1346.95" fill="#1c2b43" r="187.953" stroke="#070b11" stroke-width="27.89"/></g><path d="m407.736 1191.97 40.942 63.39h-81.885z" fill="#1c2b43" stroke="#1c2b43" stroke-width="29.03" transform="matrix(-.40960697159 -.17554572409 -.18617890993 .43441717443 710.811002382 -361.465311782)"/><path d="m407.736 1191.97 40.942 63.39h-81.885z" fill="#1c2b43" stroke="#1c2b43" stroke-width="37.49" transform="matrix(-.33093781239 .12287481427 .12471780956 .33590239152 286.845929772 -370.941759995)"/><path d="m407.736 1191.97 40.942 63.39h-81.885z" fill="#1c2b43" stroke="#1c2b43" stroke-width="15.36" transform="matrix(-.42239878047 -.73322018931 -.73322018931 .42239878047 1453.55502638 -74.834696898)"/><path d="m407.736 1191.97 40.942 63.39h-81.885z" fill="#1c2b43" stroke="#1c2b43" stroke-width="15.36" transform="matrix(.18913041018 -.82478016127 -.82478016127 -.18913041018 1313.35030235 749.904001213)"/><path d="m407.736 1191.97 40.942 63.39h-81.885z" fill="#1c2b43" stroke="#1c2b43" stroke-width="15.36" transform="matrix(-.18913041018 -.82478016127 .82478016127 -.18913041018 -812.992392974 749.899770278)"/><path d="m407.736 1191.97 40.942 63.39h-81.885z" fill="#1c2b43" stroke="#1c2b43" stroke-width="15.36" transform="matrix(.42239878047 -.73322018931 .73322018931 .42239878047 -956.94403304 -78.219444898)"/><ellipse cx="571.363" cy="1488.16" fill="#ff005e" rx="165.424" ry="87.367" stroke="#060b10" stroke-width="28.81" transform="matrix(.769125 0 0 .892518 -193.548 -1006.08)"/><path d="m191.487742839 251.687882209h43.940798536v27.372457076h-43.940798536z" fill="#ffbe00" stroke-width=".846187"/><path d="m256.374842839 251.687882209h43.940798536v27.372457076h-43.940798536z" fill="#ffbe00" stroke-width=".846187"/><ellipse cx="571.363" cy="1488.16" fill="none" rx="165.424" ry="87.367" stroke="#060b10" stroke-width="28.81" transform="matrix(.769125 0 0 .892518 -193.548 -1006.08)"/><ellipse cx="574.901" cy="1411.66" fill="#ffbe00" rx="45.584" ry="30.989" stroke="#ffbe00" stroke-width="26.83" transform="matrix(.846187 0 0 .94010529513 -240.5728256774 -1038.164275179)"/><path d="m577.741 1626.77s-74.978-6.31-101.342-121.2" fill="none" stroke="#060b10" stroke-width="43.51" transform="matrix(.46086683456 -.06547876198 .08806460153 .61983932539 -163.70030224125 -636.64276484966)"/><path d="m577.741 1626.77s-74.978-6.31-101.342-121.2" fill="none" stroke="#060b10" stroke-width="43.51" transform="matrix(-.46086683456 -.06547876198 -.08806460153 .61983932539 655.42575316743 -636.64276484966)"/><g clip-path="url(#b)" transform="matrix(.846187 0 0 .846187 -241.26860256421 -915.746997872)"><circle cx="480.594" cy="1370.39" fill="none" r="53.275" stroke="#060b10" stroke-width="28.36"/></g><g clip-path="url(#c)" transform="matrix(.846187 0 0 .846187 -80.429010285 -915.746997872)"><circle cx="480.594" cy="1370.39" fill="none" r="53.275" stroke="#060b10" stroke-width="28.36"/></g></svg>